<?xml version="1.0" encoding="iso-8859-1"?>
<!-- Generator: Adobe Illustrator 19.0.0, SVG Export Plug-In . SVG Version: 6.00 Build 0)  -->
<svg version="1.1" id="Capa_1" xmlns="http://www.w3.org/2000/svg" xmlns:xlink="http://www.w3.org/1999/xlink" x="0px" y="0px"
	 viewBox="0 0 512.001 512.001" style="enable-background:new 0 0 512.001 512.001;" xml:space="preserve">
<g>
	<path style="fill:#D1D3D4;" d="M222.224,130.669H119.206V95.002c0-2.209,1.791-4,4-4h95.018c2.209,0,4,1.791,4,4V130.669z"/>
	<path style="fill:#D1D3D4;" d="M459.409,130.669H356.39V95.002c0-2.209,1.791-4,4-4h95.018c2.209,0,4,1.791,4,4L459.409,130.669
		L459.409,130.669z"/>
</g>
<g>
	<path style="fill:#A7A9AC;" d="M428.503,91.002v39.667h30.905V95.002c0-2.209-1.791-4-4-4H428.503z"/>
	<path style="fill:#A7A9AC;" d="M191.319,91.002v39.667h30.905V95.002c0-2.209-1.791-4-4-4H191.319z"/>
</g>
<path style="fill:#76D1E3;" d="M498.093,183.815v162.937H13.907v-68.268c0-5.695,4.612-10.313,10.302-10.313h32.966l21.634-84.357
	L498.093,183.815L498.093,183.815z"/>
<rect x="165.56" y="183.902" style="fill:#FFD359;" width="332.53" height="162.85"/>
<rect x="468.39" y="183.902" style="fill:#F5B540;" width="29.697" height="162.85"/>
<path style="fill:#D1D3D4;" d="M165.565,346.752H13.907V278.52c0-5.692,4.615-10.307,10.307-10.307h141.351V346.752z"/>
<path style="fill:#FFD359;" d="M40.075,324.643H13.907v-30.938h26.167c2.617,0,4.738,2.048,4.738,4.574v21.79
	C44.813,322.596,42.691,324.643,40.075,324.643z"/>
<path style="fill:#2D86CC;" d="M498.093,183.815H37.83c-10.043,0-15.905-11.33-10.104-19.528l20.733-29.301
	c5.79-8.182,15.19-13.046,25.213-13.046h420.421c2.209,0,4,1.791,4,4V183.815z"/>
<path style="fill:#266FAB;" d="M468.395,121.94v61.875h29.697V125.94c0-2.209-1.791-4-4-4H468.395z"/>
<path style="fill:#2D86CC;" d="M4.312,346.752h503.377c2.381,0,4.312,2.518,4.312,5.625v19.688c0,3.107-1.93,5.625-4.312,5.625
	H4.312c-2.381,0-4.312-2.518-4.312-5.625v-19.688C0,349.27,1.93,346.752,4.312,346.752z"/>
<path style="fill:#266FAB;" d="M507.688,346.752h-31.512c2.381,0,4.312,2.518,4.312,5.625v19.687c0,3.107-1.93,5.625-4.312,5.625
	h31.512c2.381,0,4.312-2.518,4.312-5.625v-19.687C512,349.27,510.07,346.752,507.688,346.752z"/>
<rect x="257.99" y="183.902" style="fill:#D1D3D4;" width="75.7" height="162.85"/>
<g>
	<path style="fill:#76D1E3;" d="M333.688,268.213v-53.374h130.707c2.209,0,4,1.791,4,4v45.374c0,2.209-1.791,4-4,4H333.688z"/>
	<path style="fill:#76D1E3;" d="M196.471,264.213v-45.374c0-2.209,1.791-4,4-4h57.521v53.374h-57.521
		C198.262,268.213,196.471,266.422,196.471,264.213z"/>
</g>
<ellipse style="fill:#756A6B;" cx="82.46" cy="377.172" rx="43.783" ry="43.828"/>
<path style="fill:#D1D3D4;" d="M82.847,392.643c-8.52,0-15.453-6.939-15.453-15.469c0-8.53,6.933-15.469,15.453-15.469
	S98.3,368.643,98.3,377.174C98.3,385.703,91.368,392.643,82.847,392.643z"/>
<ellipse style="fill:#756A6B;" cx="415.63" cy="377.172" rx="43.783" ry="43.828"/>
<path style="fill:#D1D3D4;" d="M416.01,392.643c-8.52,0-15.453-6.939-15.453-15.469c0-8.53,6.933-15.469,15.453-15.469
	s15.453,6.939,15.453,15.469C431.463,385.703,424.53,392.643,416.01,392.643z"/>
<g>
	<path style="fill:#2D86CC;" d="M290.769,299.216h-4.312c-4.142,0-7.5-3.357-7.5-7.5s3.358-7.5,7.5-7.5h4.312
		c4.142,0,7.5,3.357,7.5,7.5S294.911,299.216,290.769,299.216z"/>
	<path style="fill:#2D86CC;" d="M130.721,299.216h-4.312c-4.142,0-7.5-3.357-7.5-7.5s3.358-7.5,7.5-7.5h4.312
		c4.142,0,7.5,3.357,7.5,7.5S134.863,299.216,130.721,299.216z"/>
</g>
<g>
</g>
<g>
</g>
<g>
</g>
<g>
</g>
<g>
</g>
<g>
</g>
<g>
</g>
<g>
</g>
<g>
</g>
<g>
</g>
<g>
</g>
<g>
</g>
<g>
</g>
<g>
</g>
<g>
</g>
</svg>
